<svg width="20" height="19" viewBox="0 0 20 19" fill="none" xmlns="http://www.w3.org/2000/svg">
<path d="M18.2433 0H0.760138C0.339687 0 0 0.339625 0 0.76V18.24C0 18.6604 0.339687 19 0.760138 19H18.2433C18.6638 19 19.0034 18.6604 19.0034 18.24V0.76C19.0034 0.339625 18.6638 0 18.2433 0ZM16.0484 5.54562H14.5305C13.3404 5.54562 13.11 6.11087 13.11 6.94212V8.77325H15.951L15.5805 11.6399H13.11V19H10.1478V11.6423H7.67027V8.77325H10.1478V6.6595C10.1478 4.20612 11.6467 2.869 13.8369 2.869C14.8868 2.869 15.7871 2.94738 16.0508 2.983V5.54562H16.0484Z" fill="white"/>
</svg>
