<svg width="20" height="20" viewBox="0 0 20 20" fill="none" xmlns="http://www.w3.org/2000/svg">
<path d="M10.1191 7.03582C8.3677 7.03582 6.93846 8.46506 6.93846 10.2164C6.93846 11.9678 8.3677 13.397 10.1191 13.397C11.8704 13.397 13.2996 11.9678 13.2996 10.2164C13.2996 8.46506 11.8704 7.03582 10.1191 7.03582ZM19.6584 10.2164C19.6584 8.89932 19.6704 7.59415 19.5964 6.27945C19.5224 4.75238 19.1741 3.39712 18.0574 2.28045C16.9383 1.1614 15.5855 0.815425 14.0584 0.741458C12.7413 0.66749 11.4361 0.679421 10.1214 0.679421C8.80434 0.679421 7.49918 0.66749 6.18448 0.741458C4.65741 0.815425 3.30215 1.16379 2.18548 2.28045C1.06643 3.3995 0.720454 4.75238 0.646487 6.27945C0.57252 7.59654 0.58445 8.9017 0.58445 10.2164C0.58445 11.5311 0.57252 12.8387 0.646487 14.1534C0.720454 15.6804 1.06882 17.0357 2.18548 18.1524C3.30453 19.2714 4.65741 19.6174 6.18448 19.6914C7.50157 19.7653 8.80673 19.7534 10.1214 19.7534C11.4385 19.7534 12.7437 19.7653 14.0584 19.6914C15.5855 19.6174 16.9407 19.269 18.0574 18.1524C19.1764 17.0333 19.5224 15.6804 19.5964 14.1534C19.6727 12.8387 19.6584 11.5335 19.6584 10.2164ZM10.1191 15.1102C7.4109 15.1102 5.22529 12.9246 5.22529 10.2164C5.22529 7.50826 7.4109 5.32265 10.1191 5.32265C12.8272 5.32265 15.0128 7.50826 15.0128 10.2164C15.0128 12.9246 12.8272 15.1102 10.1191 15.1102ZM15.2132 6.26513C14.5809 6.26513 14.0703 5.75452 14.0703 5.12222C14.0703 4.48992 14.5809 3.97931 15.2132 3.97931C15.8455 3.97931 16.3562 4.48992 16.3562 5.12222C16.3563 5.27236 16.3269 5.42107 16.2695 5.55982C16.2122 5.69857 16.128 5.82463 16.0218 5.9308C15.9157 6.03697 15.7896 6.12115 15.6508 6.17852C15.5121 6.23589 15.3634 6.26532 15.2132 6.26513Z" fill="white"/>
</svg>
