<svg width="143" height="22" viewBox="0 0 143 22" fill="none" xmlns="http://www.w3.org/2000/svg">
<rect width="21.7024" height="21.7023" fill="#E5BD12"/>
<rect width="10.8512" height="21.7023" fill="#333333"/>
<path d="M8.80388 13.4526V15.4468H1.91368V5.13379H4.23521V13.4526H8.80388Z" fill="white"/>
<path d="M19.2323 11.9794C19.2323 12.4853 19.1728 12.9615 19.0537 13.408C18.9446 13.8544 18.7462 14.2463 18.4584 14.5836C18.1807 14.911 17.7987 15.1739 17.3126 15.3724C16.8363 15.5609 16.2312 15.6551 15.497 15.6551C14.8224 15.6551 14.242 15.5758 13.7558 15.417C13.2697 15.2484 12.8679 15.0549 12.5504 14.8366L13.3243 13.036C13.612 13.2046 13.9195 13.3534 14.2469 13.4824C14.5743 13.6114 14.9315 13.6759 15.3184 13.6759C15.8839 13.6759 16.2907 13.537 16.5387 13.2592C16.7867 12.9814 16.9108 12.5151 16.9108 11.8603V5.13379H19.2323V11.9794Z" fill="#333333"/>
<path d="M36.6944 14.47V16.6904H29.0222V5.20703H31.6072V14.47H36.6944ZM45.6338 16.3922C45.214 16.5137 44.6727 16.6241 44.0099 16.7236C43.347 16.834 42.6511 16.8893 41.922 16.8893C41.1818 16.8893 40.5632 16.7899 40.0661 16.591C39.58 16.3922 39.1934 16.116 38.9061 15.7625C38.6189 15.3979 38.4145 14.9671 38.293 14.47C38.1715 13.9729 38.1107 13.426 38.1107 12.8295V7.97431H40.5798V12.5312C40.5798 13.3266 40.6847 13.9011 40.8946 14.2546C41.1045 14.6081 41.4967 14.7848 42.0711 14.7848C42.2479 14.7848 42.4357 14.7793 42.6345 14.7682C42.8334 14.7462 43.0101 14.7241 43.1648 14.702V7.97431H45.6338V16.3922ZM52.7404 12.0672C52.7404 11.2719 52.6354 10.7085 52.4255 10.377C52.2267 10.0456 51.8787 9.87993 51.3816 9.87993C51.2269 9.87993 51.0667 9.89097 50.901 9.91307C50.7353 9.92412 50.5751 9.94069 50.4205 9.96278V16.6904H47.9515V8.27258C48.1614 8.21735 48.4044 8.16211 48.6806 8.10688C48.9678 8.04059 49.2661 7.98536 49.5754 7.94117C49.8957 7.88594 50.2216 7.84727 50.553 7.82518C50.8844 7.79204 51.2103 7.77547 51.5307 7.77547C52.1604 7.77547 52.6685 7.85832 53.0552 8.02402C53.4529 8.17868 53.7788 8.36648 54.0329 8.58742C54.3864 8.33334 54.7896 8.13449 55.2425 7.99088C55.7065 7.84727 56.1318 7.77547 56.5184 7.77547C57.2144 7.77547 57.7833 7.87489 58.2252 8.07374C58.6781 8.26154 59.0372 8.53219 59.3023 8.88569C59.5674 9.2392 59.7497 9.65899 59.8491 10.1451C59.9485 10.6311 59.9983 11.1724 59.9983 11.769V16.6904H57.5292V12.0672C57.5292 11.2719 57.4243 10.7085 57.2144 10.377C57.0156 10.0456 56.6676 9.87993 56.1705 9.87993C56.0379 9.87993 55.8501 9.91307 55.6071 9.97935C55.3751 10.0456 55.1817 10.1285 55.0271 10.2279C55.1044 10.482 55.1541 10.7526 55.1762 11.0399C55.1983 11.316 55.2094 11.6143 55.2094 11.9347V16.6904H52.7404V12.0672ZM64.7093 16.6904H62.2403V7.97431H64.7093V16.6904ZM64.9413 5.45559C64.9413 5.90852 64.7922 6.26754 64.4939 6.53267C64.2067 6.78676 63.8642 6.9138 63.4666 6.9138C63.0689 6.9138 62.7209 6.78676 62.4226 6.53267C62.1354 6.26754 61.9918 5.90852 61.9918 5.45559C61.9918 5.00266 62.1354 4.64915 62.4226 4.39507C62.7209 4.12994 63.0689 3.99738 63.4666 3.99738C63.8642 3.99738 64.2067 4.12994 64.4939 4.39507C64.7922 4.64915 64.9413 5.00266 64.9413 5.45559ZM67.0303 8.27258C67.4501 8.15106 67.9914 8.04059 68.6542 7.94117C69.317 7.8307 70.013 7.77547 70.7421 7.77547C71.4822 7.77547 72.0953 7.87489 72.5814 8.07374C73.0785 8.26154 73.4707 8.53219 73.7579 8.88569C74.0451 9.2392 74.2495 9.65899 74.371 10.1451C74.4925 10.6311 74.5533 11.1724 74.5533 11.769V16.6904H72.0843V12.0672C72.0843 11.2719 71.9793 10.7085 71.7694 10.377C71.5596 10.0456 71.1674 9.87993 70.5929 9.87993C70.4162 9.87993 70.2284 9.89097 70.0295 9.91307C69.8307 9.92412 69.6539 9.94069 69.4993 9.96278V16.6904H67.0303V8.27258ZM84.9408 12.3158C84.9408 13.0007 84.8414 13.6304 84.6426 14.2048C84.4437 14.7682 84.1565 15.2543 83.7809 15.6631C83.4053 16.0607 82.9524 16.3701 82.4221 16.591C81.9029 16.8119 81.3174 16.9224 80.6656 16.9224C80.0249 16.9224 79.4394 16.8119 78.9092 16.591C78.3899 16.3701 77.9425 16.0607 77.5669 15.6631C77.1913 15.2543 76.8986 14.7682 76.6887 14.2048C76.4788 13.6304 76.3739 13.0007 76.3739 12.3158C76.3739 11.6309 76.4788 11.0067 76.6887 10.4433C76.9096 9.87993 77.2079 9.39938 77.5835 9.00169C77.9702 8.60399 78.4231 8.29468 78.9423 8.07374C79.4726 7.85279 80.047 7.74232 80.6656 7.74232C81.2953 7.74232 81.8698 7.85279 82.389 8.07374C82.9192 8.29468 83.3722 8.60399 83.7478 9.00169C84.1234 9.39938 84.4161 9.87993 84.626 10.4433C84.8359 11.0067 84.9408 11.6309 84.9408 12.3158ZM82.4221 12.3158C82.4221 11.5536 82.2675 10.957 81.9581 10.5262C81.6599 10.0843 81.229 9.86336 80.6656 9.86336C80.1022 9.86336 79.6659 10.0843 79.3566 10.5262C79.0472 10.957 78.8926 11.5536 78.8926 12.3158C78.8926 13.078 79.0472 13.6856 79.3566 14.1386C79.6659 14.5804 80.1022 14.8014 80.6656 14.8014C81.229 14.8014 81.6599 14.5804 81.9581 14.1386C82.2675 13.6856 82.4221 13.078 82.4221 12.3158ZM94.2936 16.3922C93.8738 16.5137 93.3325 16.6241 92.6697 16.7236C92.0069 16.834 91.3109 16.8893 90.5818 16.8893C89.8417 16.8893 89.223 16.7899 88.7259 16.591C88.2399 16.3922 87.8532 16.116 87.566 15.7625C87.2788 15.3979 87.0744 14.9671 86.9529 14.47C86.8314 13.9729 86.7706 13.426 86.7706 12.8295V7.97431H89.2396V12.5312C89.2396 13.3266 89.3446 13.9011 89.5544 14.2546C89.7643 14.6081 90.1565 14.7848 90.731 14.7848C90.9077 14.7848 91.0955 14.7793 91.2944 14.7682C91.4932 14.7462 91.67 14.7241 91.8246 14.702V7.97431H94.2936V16.3922ZM99.1135 14.9174C99.5664 14.9174 99.8868 14.8732 100.075 14.7848C100.262 14.6964 100.356 14.5252 100.356 14.2711C100.356 14.0723 100.235 13.9011 99.9917 13.7574C99.7487 13.6028 99.3786 13.4316 98.8815 13.2438C98.4948 13.1001 98.1413 12.951 97.821 12.7963C97.5116 12.6417 97.2465 12.4594 97.0256 12.2495C96.8046 12.0286 96.6334 11.769 96.5119 11.4707C96.3904 11.1724 96.3296 10.8134 96.3296 10.3936C96.3296 9.57613 96.6334 8.92988 97.241 8.45486C97.8486 7.97984 98.6826 7.74232 99.7431 7.74232C100.273 7.74232 100.782 7.79204 101.268 7.89146C101.754 7.97984 102.14 8.07926 102.428 8.18973L101.997 10.1119C101.71 10.0125 101.395 9.92412 101.052 9.84679C100.721 9.76946 100.345 9.73079 99.9254 9.73079C99.1521 9.73079 98.7655 9.94621 98.7655 10.377C98.7655 10.4765 98.7821 10.5648 98.8152 10.6422C98.8483 10.7195 98.9146 10.7968 99.014 10.8742C99.1135 10.9404 99.246 11.0178 99.4117 11.1061C99.5885 11.1835 99.8094 11.2719 100.075 11.3713C100.616 11.5701 101.063 11.769 101.417 11.9678C101.77 12.1556 102.046 12.3655 102.245 12.5975C102.455 12.8184 102.599 13.067 102.676 13.3432C102.765 13.6194 102.809 13.9397 102.809 14.3043C102.809 15.1659 102.483 15.8177 101.831 16.2596C101.19 16.7015 100.279 16.9224 99.0969 16.9224C98.3236 16.9224 97.6773 16.8561 97.1581 16.7236C96.65 16.591 96.2965 16.4805 96.0976 16.3922L96.5119 14.3871C96.9317 14.5528 97.3625 14.6854 97.8044 14.7848C98.2463 14.8732 98.6826 14.9174 99.1135 14.9174ZM114.418 12.9952C114.418 13.5475 114.357 14.0612 114.236 14.5363C114.125 15.0113 113.921 15.4311 113.622 15.7956C113.335 16.1491 112.943 16.4308 112.446 16.6407C111.96 16.8396 111.347 16.939 110.607 16.939C110.231 16.939 109.883 16.9058 109.563 16.8396C109.253 16.7843 108.972 16.7125 108.718 16.6241C108.463 16.5247 108.243 16.4253 108.055 16.3259C107.867 16.2154 107.718 16.1105 107.607 16.011L108.237 14.7351C108.469 14.9008 108.767 15.0776 109.132 15.2654C109.507 15.4421 109.971 15.5305 110.524 15.5305C111.319 15.5305 111.899 15.3316 112.264 14.9339C112.628 14.5252 112.81 13.8292 112.81 12.8461V5.20703H114.418V12.9952ZM124.692 12.3821C124.692 13.067 124.592 13.6856 124.393 14.238C124.194 14.7903 123.913 15.2654 123.548 15.6631C123.195 16.0607 122.769 16.3701 122.272 16.591C121.775 16.8009 121.234 16.9058 120.648 16.9058C120.063 16.9058 119.522 16.8009 119.024 16.591C118.527 16.3701 118.096 16.0607 117.732 15.6631C117.378 15.2654 117.102 14.7903 116.903 14.238C116.705 13.6856 116.605 13.067 116.605 12.3821C116.605 11.7082 116.705 11.0951 116.903 10.5427C117.102 9.97935 117.378 9.4988 117.732 9.10111C118.096 8.70342 118.527 8.39962 119.024 8.18973C119.522 7.96879 120.063 7.85832 120.648 7.85832C121.234 7.85832 121.775 7.96879 122.272 8.18973C122.769 8.39962 123.195 8.70342 123.548 9.10111C123.913 9.4988 124.194 9.97935 124.393 10.5427C124.592 11.0951 124.692 11.7082 124.692 12.3821ZM123.084 12.3821C123.084 11.4099 122.863 10.6422 122.421 10.0788C121.991 9.50433 121.4 9.2171 120.648 9.2171C119.897 9.2171 119.301 9.50433 118.859 10.0788C118.428 10.6422 118.212 11.4099 118.212 12.3821C118.212 13.3542 118.428 14.1275 118.859 14.702C119.301 15.2654 119.897 15.5471 120.648 15.5471C121.4 15.5471 121.991 15.2654 122.421 14.702C122.863 14.1275 123.084 13.3542 123.084 12.3821ZM128.401 8.45486C128.589 8.33334 128.87 8.2063 129.246 8.07374C129.633 7.94117 130.074 7.87489 130.572 7.87489C131.19 7.87489 131.737 7.98536 132.212 8.2063C132.698 8.42724 133.107 8.73656 133.438 9.13425C133.77 9.53195 134.018 10.007 134.184 10.5593C134.361 11.1117 134.449 11.7193 134.449 12.3821C134.449 13.078 134.344 13.7077 134.134 14.2711C133.935 14.8235 133.648 15.293 133.273 15.6796C132.897 16.0663 132.444 16.3645 131.914 16.5744C131.383 16.7843 130.787 16.8893 130.124 16.8893C129.406 16.8893 128.771 16.8396 128.218 16.7401C127.666 16.6407 127.213 16.5413 126.86 16.4419V4.0968L128.401 3.83167V8.45486ZM128.401 15.3482C128.555 15.3924 128.771 15.4366 129.047 15.4808C129.334 15.5139 129.688 15.5305 130.108 15.5305C130.936 15.5305 131.599 15.2598 132.096 14.7185C132.593 14.1662 132.842 13.3874 132.842 12.3821C132.842 11.9402 132.797 11.5259 132.709 11.1393C132.621 10.7526 132.477 10.4212 132.278 10.1451C132.079 9.85783 131.82 9.63689 131.499 9.48223C131.19 9.31653 130.815 9.23368 130.373 9.23368C129.953 9.23368 129.566 9.30548 129.213 9.44909C128.859 9.5927 128.589 9.74184 128.401 9.8965V15.3482ZM138.623 15.5802C139.252 15.5802 139.716 15.4973 140.015 15.3316C140.324 15.1659 140.479 14.9008 140.479 14.5363C140.479 14.1607 140.329 13.8624 140.031 13.6414C139.733 13.4205 139.241 13.1719 138.556 12.8958C138.225 12.7632 137.905 12.6306 137.595 12.4981C137.297 12.3545 137.037 12.1888 136.816 12.001C136.595 11.8132 136.419 11.5867 136.286 11.3216C136.154 11.0564 136.087 10.7305 136.087 10.3439C136.087 9.58166 136.369 8.97959 136.932 8.53771C137.496 8.08478 138.264 7.85832 139.236 7.85832C139.479 7.85832 139.722 7.87489 139.965 7.90803C140.208 7.93012 140.434 7.96327 140.644 8.00745C140.854 8.04059 141.036 8.07926 141.191 8.12345C141.357 8.16764 141.484 8.2063 141.572 8.23944L141.29 9.56509C141.125 9.47671 140.865 9.38833 140.512 9.29996C140.158 9.20053 139.733 9.15082 139.236 9.15082C138.805 9.15082 138.429 9.2392 138.109 9.41595C137.789 9.58166 137.628 9.84679 137.628 10.2113C137.628 10.3991 137.662 10.5648 137.728 10.7085C137.805 10.8521 137.916 10.9846 138.059 11.1061C138.214 11.2166 138.402 11.3216 138.623 11.421C138.844 11.5204 139.109 11.6254 139.418 11.7358C139.827 11.8905 140.191 12.0451 140.512 12.1998C140.832 12.3434 141.103 12.5146 141.324 12.7135C141.556 12.9123 141.732 13.1554 141.854 13.4426C141.975 13.7188 142.036 14.0612 142.036 14.47C142.036 15.2654 141.738 15.8674 141.141 16.2762C140.556 16.6849 139.716 16.8893 138.623 16.8893C137.86 16.8893 137.264 16.823 136.833 16.6904C136.402 16.5689 136.109 16.475 135.955 16.4087L136.236 15.0831C136.413 15.1494 136.695 15.2488 137.082 15.3814C137.468 15.5139 137.982 15.5802 138.623 15.5802Z" fill="white"/>
</svg>
