<svg width="24" height="18" viewBox="0 0 24 18" fill="none" xmlns="http://www.w3.org/2000/svg">
<path d="M23.993 2.08329C23.1193 2.43534 22.1807 2.67321 21.1939 2.78073C22.2121 2.22677 22.9738 1.3549 23.3369 0.327804C22.3804 0.844449 21.3335 1.20811 20.2417 1.40298C19.5076 0.690191 18.5352 0.217742 17.4754 0.0589848C16.4157 -0.0997724 15.328 0.0640443 14.3812 0.525001C13.4344 0.985958 12.6814 1.71827 12.2392 2.60823C11.797 3.49819 11.6902 4.49602 11.9356 5.44679C9.99734 5.35829 8.10124 4.90021 6.37031 4.10225C4.63938 3.30429 3.11231 2.1843 1.88821 0.814963C1.46966 1.47149 1.22899 2.23267 1.22899 3.04334C1.22853 3.77312 1.42617 4.49173 1.80438 5.1354C2.18259 5.77907 2.72967 6.3279 3.3971 6.73319C2.62306 6.7108 1.86611 6.52062 1.18923 6.17848V6.23557C1.18915 7.25912 1.57852 8.25117 2.29126 9.04339C3.00401 9.83561 3.99622 10.3792 5.09956 10.5819C4.38151 10.7586 3.6287 10.7847 2.89797 10.6581C3.20927 11.5388 3.81564 12.3089 4.63221 12.8607C5.44878 13.4124 6.43465 13.7182 7.45182 13.7352C5.72512 14.9677 3.59265 15.6363 1.39746 15.6334C1.00861 15.6335 0.620081 15.6128 0.233887 15.5715C2.46213 16.8743 5.05597 17.5657 7.70505 17.563C16.6725 17.563 21.5748 10.8093 21.5748 4.95201C21.5748 4.76172 21.5696 4.56952 21.5602 4.37922C22.5137 3.75217 23.3368 2.97568 23.9909 2.08615L23.993 2.08329V2.08329Z" fill="white"/>
</svg>
